<svg width="375" height="375" viewBox="0 0 375 375" fill="none" xmlns="http://www.w3.org/2000/svg">
<circle cx="187.355" cy="187.355" r="187.355" fill="#1CB0F6"/>
<circle cx="187.5" cy="187.5" r="159.5" fill="#99C8EE"/>
<path fill-rule="evenodd" clip-rule="evenodd" d="M188 346.999C188.167 347 188.333 347 188.5 347C276.589 347 348 275.589 348 187.5C348 99.4106 276.589 28 188.5 28C188.333 28 188.167 28.0003 188 28.0008V346.999Z" fill="#7AB9E8"/>
<path d="M28 178H187V197H28V178Z" fill="#589ADF"/>
<rect x="189" y="178" width="159" height="19" rx="2" fill="#99C8EE"/>
<path d="M158 98.5C158 82.2076 171.208 69 187.5 69V69C203.792 69 217 82.2076 217 98.5V226H158V98.5Z" fill="#F2F2F4"/>
<path fill-rule="evenodd" clip-rule="evenodd" d="M187 226H217V98.5C217 82.2076 203.792 69 187.5 69C187.333 69 187.166 69.0014 187 69.0042V226Z" fill="#DFDFE1"/>
<circle cx="187.5" cy="260.5" r="46.5" fill="#F2F2F4"/>
<path fill-rule="evenodd" clip-rule="evenodd" d="M187 306.997V214.003C187.166 214.001 187.333 214 187.5 214C213.181 214 234 234.819 234 260.5C234 286.181 213.181 307 187.5 307C187.333 307 187.166 306.999 187 306.997Z" fill="#DFDFE1"/>
<path d="M177 122C177 116.477 181.477 112 187 112H188C193.523 112 198 116.477 198 122V243H177V122Z" fill="#FF5151"/>
<circle cx="187" cy="261" r="23" fill="#FF5151"/>
<path fill-rule="evenodd" clip-rule="evenodd" d="M186.753 283.999V238.001C186.835 238 186.917 238 187 238C199.703 238 210 248.297 210 261C210 273.703 199.703 284 187 284C186.917 284 186.835 284 186.753 283.999Z" fill="#B71515"/>
</svg>
