<svg width="69" height="45" viewBox="0 0 69 45" fill="none" xmlns="http://www.w3.org/2000/svg">
<path d="M58.6598 34.705C56.9758 36.867 54.6598 39.299 51.9588 40.68C46.9898 43.219 43.1988 37.381 43.9528 31.793C44.6778 26.404 48.1168 24.022 52.0618 23.049C54.7438 22.387 57.0268 22.826 58.6848 24.045" stroke="#AFAFAF" stroke-width="4" stroke-miterlimit="10"/>
<path d="M58.7339 20.938V37.779C58.7339 37.779 60.0229 46.381 65.9999 37.834" stroke="#AFAFAF" stroke-width="4" stroke-miterlimit="10" stroke-linecap="round"/>
<path d="M32.25 20.899H69" stroke="#AFAFAF" stroke-width="4" stroke-miterlimit="10"/>
<path d="M0 20.899H12.084" stroke="#AFAFAF" stroke-width="4" stroke-miterlimit="10"/>
<path d="M0 2.101H69" stroke="#AFAFAF" stroke-width="4" stroke-miterlimit="10"/>
<path d="M0 42.9H69" stroke="#AFAFAF" stroke-width="4" stroke-miterlimit="10"/>
<path d="M18.863 2.173L5.14502 42.551" stroke="#AFAFAF" stroke-width="4" stroke-miterlimit="10"/>
<path d="M25.7319 2.173L39.4489 42.551" stroke="#AFAFAF" stroke-width="4" stroke-miterlimit="10"/>
<path d="M27.6838 27.842L22.6218 13.059H22.5738L17.5078 27.842H27.6838Z" stroke="#AFAFAF" stroke-width="4" stroke-miterlimit="10"/>
<path d="M32.1012 42.502L29.3422 34.438H15.2502L12.4902 42.502" stroke="#AFAFAF" stroke-width="4" stroke-miterlimit="10"/>
</svg>
