<svg width="320" height="319" viewBox="0 0 320 319" fill="none" xmlns="http://www.w3.org/2000/svg">
<circle cx="159.5" cy="159.5" r="159.5" fill="#99C8EE"/>
<path fill-rule="evenodd" clip-rule="evenodd" d="M160 318.999C160.167 319 160.333 319 160.5 319C248.589 319 320 247.589 320 159.5C320 71.4106 248.589 0 160.5 0C160.333 0 160.167 0.000255814 160 0.000767071V318.999Z" fill="#7AB9E8"/>
<path d="M0 150H159V169H0V150Z" fill="#589ADF"/>
<rect x="161" y="150" width="159" height="19" rx="2" fill="#99C8EE"/>
<path d="M130 70.5C130 54.2076 143.208 41 159.5 41C175.792 41 189 54.2076 189 70.5V198H130V70.5Z" fill="#F2F2F4"/>
<path fill-rule="evenodd" clip-rule="evenodd" d="M159 198H189V70.5C189 54.2076 175.792 41 159.5 41C159.333 41 159.166 41.0014 159 41.0042V198Z" fill="#DFDFE1"/>
<circle cx="159.5" cy="232.5" r="46.5" fill="#F2F2F4"/>
<path fill-rule="evenodd" clip-rule="evenodd" d="M159 278.997V186.003C159.166 186.001 159.333 186 159.5 186C185.181 186 206 206.819 206 232.5C206 258.181 185.181 279 159.5 279C159.333 279 159.166 278.999 159 278.997Z" fill="#DFDFE1"/>
<path d="M149 94C149 88.4772 153.477 84 159 84H160C165.523 84 170 88.4772 170 94V215H149V94Z" fill="#FF5151"/>
<circle cx="159" cy="233" r="23" fill="#FF5151"/>
<path fill-rule="evenodd" clip-rule="evenodd" d="M158.753 255.999V210.001C158.835 210 158.917 210 159 210C171.703 210 182 220.297 182 233C182 245.703 171.703 256 159 256C158.917 256 158.835 256 158.753 255.999Z" fill="#B71515"/>
</svg>
