<svg width="72" height="69" viewBox="0 0 72 69" fill="none" xmlns="http://www.w3.org/2000/svg">
<path d="M19.4651 37.068C16.9881 33.49 15.5361 29.148 15.5361 24.465C15.5361 12.219 25.4641 2.29401 37.7081 2.29401C49.9621 2.29401 59.8871 12.219 59.8871 24.465C59.8871 29.423 58.2601 33.999 55.5121 37.691" stroke="#AFAFAF" stroke-width="4" stroke-miterlimit="10" stroke-linejoin="round"/>
<path d="M18.0537 14.939L24.2237 21.008L23.2237 26.258L26.8487 28.383L29.3907 37.299L36.5987 24.133L29.0987 20.258L24.2237 20.633L23.7237 16.633L29.9737 12.383L29.7237 4.26501" stroke="#AFAFAF" stroke-width="4" stroke-miterlimit="10" stroke-linejoin="round"/>
<path d="M59.7619 21.355L54.1899 29.492L51.9399 32.798L49.7479 23.633L47.2249 23.508C47.2249 23.508 41.0999 21.258 46.3499 16.883L52.7249 16.133L55.2249 11.258L47.0999 12.133L44.8689 10.758L47.0499 4.623" stroke="#AFAFAF" stroke-width="4" stroke-miterlimit="10" stroke-linejoin="round"/>
<path d="M50.5268 45.959L62.6828 39.746C65.0328 38.484 67.7878 38.99 68.9248 41.105C70.0578 43.22 69.0638 45.984 66.7138 47.246L41.4908 60.766L40.1578 61.1L16.6338 61.735C16.6338 61.735 13.6048 62.585 9.96582 66.706" stroke="#AFAFAF" stroke-width="4" stroke-miterlimit="10" stroke-linejoin="round"/>
<path d="M1.60693 54.34L12.2769 44.518C17.4919 41.002 23.6749 42.942 23.6749 42.942C26.6689 43.731 32.2299 43.909 32.2299 43.909H41.4629C44.2129 43.909 46.4629 45.872 46.4629 48.272C46.4629 50.674 44.2129 52.637 41.4629 52.637H28.6899" stroke="#AFAFAF" stroke-width="4" stroke-miterlimit="10"/>
</svg>
