<svg width="1920" height="1080" viewBox="0 0 1920 1080" fill="none" xmlns="http://www.w3.org/2000/svg">
<g opacity="0.6">
<path opacity="0.6" d="M1172.14 864.364C1174.3 864.364 1176.04 862.617 1176.04 860.461C1176.04 858.306 1174.3 856.558 1172.14 856.558C1169.99 856.558 1168.24 858.306 1168.24 860.461C1168.24 862.617 1169.99 864.364 1172.14 864.364Z" fill="white"/>
<path opacity="0.6" d="M1605.38 766.791C1606.82 766.791 1607.98 765.626 1607.98 764.189C1607.98 762.752 1606.82 761.587 1605.38 761.587C1603.94 761.587 1602.78 762.752 1602.78 764.189C1602.78 765.626 1603.94 766.791 1605.38 766.791Z" fill="white"/>
<path opacity="0.6" d="M1392.34 726.244C1394.13 726.244 1395.59 724.788 1395.59 722.991C1395.59 721.195 1394.13 719.739 1392.34 719.739C1390.54 719.739 1389.09 721.195 1389.09 722.991C1389.09 724.788 1390.54 726.244 1392.34 726.244Z" fill="white"/>
<path opacity="0.6" d="M1288.96 726.027C1291.35 726.027 1293.29 724.085 1293.29 721.69C1293.29 719.295 1291.35 717.354 1288.96 717.354C1286.57 717.354 1284.62 719.295 1284.62 721.69C1284.62 724.085 1286.57 726.027 1288.96 726.027Z" fill="white"/>
<path opacity="0.6" d="M1235.21 538.252C1237.13 538.252 1238.68 536.699 1238.68 534.783C1238.68 532.867 1237.13 531.314 1235.21 531.314C1233.3 531.314 1231.74 532.867 1231.74 534.783C1231.74 536.699 1233.3 538.252 1235.21 538.252Z" fill="white"/>
<path opacity="0.6" d="M1353.98 508.547C1355.89 508.547 1357.44 506.993 1357.44 505.077C1357.44 503.161 1355.89 501.608 1353.98 501.608C1352.06 501.608 1350.51 503.161 1350.51 505.077C1350.51 506.993 1352.06 508.547 1353.98 508.547Z" fill="white"/>
<path opacity="0.6" d="M1222.42 397.096C1223.86 397.096 1225.02 395.931 1225.02 394.494C1225.02 393.057 1223.86 391.892 1222.42 391.892C1220.99 391.892 1219.82 393.057 1219.82 394.494C1219.82 395.931 1220.99 397.096 1222.42 397.096Z" fill="white"/>
<path opacity="0.6" d="M983.158 619.564C984.595 619.564 985.759 618.399 985.759 616.962C985.759 615.525 984.595 614.36 983.158 614.36C981.722 614.36 980.557 615.525 980.557 616.962C980.557 618.399 981.722 619.564 983.158 619.564Z" fill="white"/>
<path opacity="0.6" d="M1000.28 775.247C1001.72 775.247 1002.88 774.082 1002.88 772.645C1002.88 771.208 1001.72 770.043 1000.28 770.043C998.843 770.043 997.679 771.208 997.679 772.645C997.679 774.082 998.843 775.247 1000.28 775.247Z" fill="white"/>
<path opacity="0.6" d="M1005.91 1038.7C1007.35 1038.7 1008.52 1037.53 1008.52 1036.09C1008.52 1034.66 1007.35 1033.49 1005.91 1033.49C1004.48 1033.49 1003.31 1034.66 1003.31 1036.09C1003.31 1037.53 1004.48 1038.7 1005.91 1038.7Z" fill="white"/>
<path opacity="0.6" d="M1212.45 993.378C1213.89 993.378 1215.06 992.213 1215.06 990.776C1215.06 989.339 1213.89 988.174 1212.45 988.174C1211.02 988.174 1209.85 989.339 1209.85 990.776C1209.85 992.213 1211.02 993.378 1212.45 993.378Z" fill="white"/>
<path opacity="0.6" d="M739.991 1031.11C741.427 1031.11 742.592 1029.94 742.592 1028.5C742.592 1027.07 741.427 1025.9 739.991 1025.9C738.555 1025.9 737.39 1027.07 737.39 1028.5C737.39 1029.94 738.555 1031.11 739.991 1031.11Z" fill="white"/>
<path opacity="0.6" d="M301.337 971.912C303.252 971.912 304.805 970.359 304.805 968.443C304.805 966.527 303.252 964.973 301.337 964.973C299.422 964.973 297.869 966.527 297.869 968.443C297.869 970.359 299.422 971.912 301.337 971.912Z" fill="white"/>
<path opacity="0.6" d="M147.028 918.138C148.943 918.138 150.495 916.585 150.495 914.669C150.495 912.753 148.943 911.2 147.028 911.2C145.113 911.2 143.56 912.753 143.56 914.669C143.56 916.585 145.113 918.138 147.028 918.138Z" fill="white"/>
<path opacity="0.6" d="M162.632 958.252C163.949 958.252 165.016 957.184 165.016 955.867C165.016 954.549 163.949 953.481 162.632 953.481C161.315 953.481 160.248 954.549 160.248 955.867C160.248 957.184 161.315 958.252 162.632 958.252Z" fill="white"/>
<path opacity="0.6" d="M62.071 771.344C63.3876 771.344 64.455 770.277 64.455 768.959C64.455 767.642 63.3876 766.574 62.071 766.574C60.7543 766.574 59.687 767.642 59.687 768.959C59.687 770.277 60.7543 771.344 62.071 771.344Z" fill="white"/>
<path opacity="0.6" d="M294.185 762.671C295.502 762.671 296.569 761.603 296.569 760.286C296.569 758.969 295.502 757.901 294.185 757.901C292.868 757.901 291.801 758.969 291.801 760.286C291.801 761.603 292.868 762.671 294.185 762.671Z" fill="white"/>
<path opacity="0.6" d="M212.046 616.311C213.841 616.311 215.297 614.855 215.297 613.059C215.297 611.262 213.841 609.806 212.046 609.806C210.25 609.806 208.795 611.262 208.795 613.059C208.795 614.855 210.25 616.311 212.046 616.311Z" fill="white"/>
<path opacity="0.6" d="M151.146 614.143C152.462 614.143 153.53 613.075 153.53 611.758C153.53 610.44 152.462 609.373 151.146 609.373C149.829 609.373 148.762 610.44 148.762 611.758C148.762 613.075 149.829 614.143 151.146 614.143Z" fill="white"/>
<path opacity="0.6" d="M185.172 454.122C186.488 454.122 187.556 453.055 187.556 451.737C187.556 450.42 186.488 449.352 185.172 449.352C183.855 449.352 182.788 450.42 182.788 451.737C182.788 453.055 183.855 454.122 185.172 454.122Z" fill="white"/>
<path opacity="0.6" d="M326.694 479.492C328.011 479.492 329.078 478.424 329.078 477.106C329.078 475.789 328.011 474.721 326.694 474.721C325.377 474.721 324.31 475.789 324.31 477.106C324.31 478.424 325.377 479.492 326.694 479.492Z" fill="white"/>
<path opacity="0.6" d="M88.945 468.216C90.2617 468.216 91.329 467.149 91.329 465.831C91.329 464.514 90.2617 463.446 88.945 463.446C87.6284 463.446 86.561 464.514 86.561 465.831C86.561 467.149 87.6284 468.216 88.945 468.216Z" fill="white"/>
<path opacity="0.6" d="M471.034 765.49C472.35 765.49 473.418 764.422 473.418 763.105C473.418 761.788 472.35 760.72 471.034 760.72C469.717 760.72 468.65 761.788 468.65 763.105C468.65 764.422 469.717 765.49 471.034 765.49Z" fill="white"/>
<path opacity="0.6" d="M640.947 567.308C642.264 567.308 643.331 566.24 643.331 564.922C643.331 563.605 642.264 562.537 640.947 562.537C639.631 562.537 638.563 563.605 638.563 564.922C638.563 566.24 639.631 567.308 640.947 567.308Z" fill="white"/>
<path opacity="0.6" d="M669.338 527.628C670.655 527.628 671.722 526.56 671.722 525.243C671.722 523.925 670.655 522.858 669.338 522.858C668.022 522.858 666.954 523.925 666.954 525.243C666.954 526.56 668.022 527.628 669.338 527.628Z" fill="white"/>
<path opacity="0.6" d="M824.948 414.443C826.265 414.443 827.332 413.375 827.332 412.058C827.332 410.74 826.265 409.672 824.948 409.672C823.631 409.672 822.564 410.74 822.564 412.058C822.564 413.375 823.631 414.443 824.948 414.443Z" fill="white"/>
<path opacity="0.6" d="M1037.34 543.239C1038.66 543.239 1039.72 542.172 1039.72 540.854C1039.72 539.537 1038.66 538.469 1037.34 538.469C1036.02 538.469 1034.96 539.537 1034.96 540.854C1034.96 542.172 1036.02 543.239 1037.34 543.239Z" fill="white"/>
<path opacity="0.6" d="M1757.52 507.029C1758.96 507.029 1760.12 505.864 1760.12 504.427C1760.12 502.99 1758.96 501.825 1757.52 501.825C1756.09 501.825 1754.92 502.99 1754.92 504.427C1754.92 505.864 1756.09 507.029 1757.52 507.029Z" fill="white"/>
<path opacity="0.6" d="M1318.87 448.051C1320.78 448.051 1322.33 446.498 1322.33 444.582C1322.33 442.666 1320.78 441.113 1318.87 441.113C1316.95 441.113 1315.4 442.666 1315.4 444.582C1315.4 446.498 1316.95 448.051 1318.87 448.051Z" fill="white"/>
<path opacity="0.6" d="M1164.56 394.061C1166.47 394.061 1168.03 392.507 1168.03 390.591C1168.03 388.675 1166.47 387.122 1164.56 387.122C1162.64 387.122 1161.09 388.675 1161.09 390.591C1161.09 392.507 1162.64 394.061 1164.56 394.061Z" fill="white"/>
<path opacity="0.6" d="M1180.16 434.174C1181.48 434.174 1182.55 433.106 1182.55 431.789C1182.55 430.472 1181.48 429.404 1180.16 429.404C1178.85 429.404 1177.78 430.472 1177.78 431.789C1177.78 433.106 1178.85 434.174 1180.16 434.174Z" fill="white"/>
<path opacity="0.6" d="M1311.72 238.811C1313.03 238.811 1314.1 237.743 1314.1 236.425C1314.1 235.108 1313.03 234.04 1311.72 234.04C1310.4 234.04 1309.33 235.108 1309.33 236.425C1309.33 237.743 1310.4 238.811 1311.72 238.811Z" fill="white"/>
<path opacity="0.6" d="M1229.58 92.2337C1231.37 92.2337 1232.83 90.7775 1232.83 88.9812C1232.83 87.1849 1231.37 85.7288 1229.58 85.7288C1227.78 85.7288 1226.33 87.1849 1226.33 88.9812C1226.33 90.7775 1227.78 92.2337 1229.58 92.2337Z" fill="white"/>
<path opacity="0.6" d="M1168.89 90.0654C1170.21 90.0654 1171.28 88.9975 1171.28 87.6802C1171.28 86.363 1170.21 85.2951 1168.89 85.2951C1167.58 85.2951 1166.51 86.363 1166.51 87.6802C1166.51 88.9975 1167.58 90.0654 1168.89 90.0654Z" fill="white"/>
<path opacity="0.6" d="M1488.78 241.629C1490.1 241.629 1491.17 240.562 1491.17 239.244C1491.17 237.927 1490.1 236.859 1488.78 236.859C1487.46 236.859 1486.4 237.927 1486.4 239.244C1486.4 240.562 1487.46 241.629 1488.78 241.629Z" fill="white"/>
<path opacity="0.6" d="M1658.48 43.2301C1659.79 43.2301 1660.86 42.1623 1660.86 40.845C1660.86 39.5277 1659.79 38.4599 1658.48 38.4599C1657.16 38.4599 1656.09 39.5277 1656.09 40.845C1656.09 42.1623 1657.16 43.2301 1658.48 43.2301Z" fill="white"/>
<path opacity="0.6" d="M1194.47 635.392C1195.78 635.392 1196.85 634.324 1196.85 633.007C1196.85 631.69 1195.78 630.622 1194.47 630.622C1193.15 630.622 1192.08 631.69 1192.08 633.007C1192.08 634.324 1193.15 635.392 1194.47 635.392Z" fill="white"/>
<path opacity="0.6" d="M1447.39 1000.32C1448.82 1000.32 1449.99 999.152 1449.99 997.715C1449.99 996.278 1448.82 995.113 1447.39 995.113C1445.95 995.113 1444.79 996.278 1444.79 997.715C1444.79 999.152 1445.95 1000.32 1447.39 1000.32Z" fill="white"/>
<path opacity="0.6" d="M1611.66 1017.45C1613.1 1017.45 1614.27 1016.28 1614.27 1014.84C1614.27 1013.41 1613.1 1012.24 1611.66 1012.24C1610.23 1012.24 1609.06 1013.41 1609.06 1014.84C1609.06 1016.28 1610.23 1017.45 1611.66 1017.45Z" fill="white"/>
<path opacity="0.6" d="M1801.3 1025.9C1802.74 1025.9 1803.9 1024.74 1803.9 1023.3C1803.9 1021.86 1802.74 1020.7 1801.3 1020.7C1799.86 1020.7 1798.7 1021.86 1798.7 1023.3C1798.7 1024.74 1799.86 1025.9 1801.3 1025.9Z" fill="white"/>
<path opacity="0.6" d="M1792.85 960.854C1794.28 960.854 1795.45 959.689 1795.45 958.252C1795.45 956.815 1794.28 955.65 1792.85 955.65C1791.41 955.65 1790.25 956.815 1790.25 958.252C1790.25 959.689 1791.41 960.854 1792.85 960.854Z" fill="white"/>
<path opacity="0.6" d="M1846.6 926.811C1848.03 926.811 1849.2 925.646 1849.2 924.209C1849.2 922.772 1848.03 921.607 1846.6 921.607C1845.16 921.607 1844 922.772 1844 924.209C1844 925.646 1845.16 926.811 1846.6 926.811Z" fill="white"/>
<path opacity="0.6" d="M1800.65 588.557C1801.85 588.557 1802.82 587.586 1802.82 586.389C1802.82 585.191 1801.85 584.22 1800.65 584.22C1799.45 584.22 1798.48 585.191 1798.48 586.389C1798.48 587.586 1799.45 588.557 1800.65 588.557Z" fill="white"/>
<path opacity="0.6" d="M1885.61 510.715C1886.8 510.715 1887.77 509.744 1887.77 508.547C1887.77 507.349 1886.8 506.378 1885.61 506.378C1884.41 506.378 1883.44 507.349 1883.44 508.547C1883.44 509.744 1884.41 510.715 1885.61 510.715Z" fill="white"/>
<path opacity="0.6" d="M1565.72 499.44C1566.92 499.44 1567.89 498.469 1567.89 497.272C1567.89 496.074 1566.92 495.103 1565.72 495.103C1564.52 495.103 1563.55 496.074 1563.55 497.272C1563.55 498.469 1564.52 499.44 1565.72 499.44Z" fill="white"/>
<path opacity="0.6" d="M1436.12 953.698C1437.55 953.698 1438.72 952.533 1438.72 951.096C1438.72 949.659 1437.55 948.494 1436.12 948.494C1434.68 948.494 1433.52 949.659 1433.52 951.096C1433.52 952.533 1434.68 953.698 1436.12 953.698Z" fill="white"/>
<path opacity="0.6" d="M376.758 596.363C378.194 596.363 379.358 595.198 379.358 593.761C379.358 592.324 378.194 591.159 376.758 591.159C375.321 591.159 374.157 592.324 374.157 593.761C374.157 595.198 375.321 596.363 376.758 596.363Z" fill="white"/>
<path opacity="0.6" d="M307.839 104.593C309.275 104.593 310.439 103.428 310.439 101.991C310.439 100.554 309.275 99.389 307.839 99.389C306.402 99.389 305.238 100.554 305.238 101.991C305.238 103.428 306.402 104.593 307.839 104.593Z" fill="white"/>
<path opacity="0.6" d="M94.5799 64.0458C96.3753 64.0458 97.8308 62.5896 97.8308 60.7933C97.8308 58.9971 96.3753 57.5409 94.5799 57.5409C92.7845 57.5409 91.329 58.9971 91.329 60.7933C91.329 62.5896 92.7845 64.0458 94.5799 64.0458Z" fill="white"/>
<path opacity="0.6" d="M149.845 338.119C151.281 338.119 152.446 336.954 152.446 335.517C152.446 334.08 151.281 332.915 149.845 332.915C148.409 332.915 147.244 334.08 147.244 335.517C147.244 336.954 148.409 338.119 149.845 338.119Z" fill="white"/>
<path opacity="0.6" d="M313.907 355.248C315.343 355.248 316.508 354.083 316.508 352.646C316.508 351.209 315.343 350.044 313.907 350.044C312.471 350.044 311.306 351.209 311.306 352.646C311.306 354.083 312.471 355.248 313.907 355.248Z" fill="white"/>
<path opacity="0.6" d="M503.543 363.704C504.979 363.704 506.143 362.54 506.143 361.103C506.143 359.666 504.979 358.501 503.543 358.501C502.106 358.501 500.942 359.666 500.942 361.103C500.942 362.54 502.106 363.704 503.543 363.704Z" fill="white"/>
<path opacity="0.6" d="M495.09 298.439C496.527 298.439 497.691 297.274 497.691 295.837C497.691 294.4 496.527 293.235 495.09 293.235C493.654 293.235 492.49 294.4 492.49 295.837C492.49 297.274 493.654 298.439 495.09 298.439Z" fill="white"/>
<path opacity="0.6" d="M548.839 264.613C550.275 264.613 551.439 263.448 551.439 262.011C551.439 260.574 550.275 259.409 548.839 259.409C547.402 259.409 546.238 260.574 546.238 262.011C546.238 263.448 547.402 264.613 548.839 264.613Z" fill="white"/>
<path opacity="0.6" d="M680.608 43.2301C681.805 43.2301 682.775 42.2594 682.775 41.0619C682.775 39.8643 681.805 38.8936 680.608 38.8936C679.411 38.8936 678.441 39.8643 678.441 41.0619C678.441 42.2594 679.411 43.2301 680.608 43.2301Z" fill="white"/>
<path opacity="0.6" d="M914.022 178.749C916.536 178.749 918.574 176.71 918.574 174.195C918.574 171.681 916.536 169.642 914.022 169.642C911.509 169.642 909.471 171.681 909.471 174.195C909.471 176.71 911.509 178.749 914.022 178.749Z" fill="white"/>
<path opacity="0.6" d="M926.809 150.344C927.767 150.344 928.543 149.567 928.543 148.609C928.543 147.651 927.767 146.875 926.809 146.875C925.852 146.875 925.076 147.651 925.076 148.609C925.076 149.567 925.852 150.344 926.809 150.344Z" fill="white"/>
<path opacity="0.6" d="M1011.98 360.452C1013.18 360.452 1014.15 359.481 1014.15 358.284C1014.15 357.086 1013.18 356.115 1011.98 356.115C1010.79 356.115 1009.82 357.086 1009.82 358.284C1009.82 359.481 1010.79 360.452 1011.98 360.452Z" fill="white"/>
<path opacity="0.6" d="M854.856 313.617C856.053 313.617 857.023 312.646 857.023 311.449C857.023 310.251 856.053 309.28 854.856 309.28C853.659 309.28 852.689 310.251 852.689 311.449C852.689 312.646 853.659 313.617 854.856 313.617Z" fill="white"/>
<path opacity="0.6" d="M729.155 968.443C731.07 968.443 732.622 966.889 732.622 964.973C732.622 963.057 731.07 961.504 729.155 961.504C727.24 961.504 725.687 963.057 725.687 964.973C725.687 966.889 727.24 968.443 729.155 968.443Z" fill="white"/>
<path opacity="0.6" d="M847.921 938.737C849.836 938.737 851.388 937.184 851.388 935.268C851.388 933.352 849.836 931.798 847.921 931.798C846.006 931.798 844.453 933.352 844.453 935.268C844.453 937.184 846.006 938.737 847.921 938.737Z" fill="white"/>
<path opacity="0.6" d="M716.368 827.503C717.804 827.503 718.969 826.338 718.969 824.901C718.969 823.464 717.804 822.299 716.368 822.299C714.932 822.299 713.767 823.464 713.767 824.901C713.767 826.338 714.932 827.503 716.368 827.503Z" fill="white"/>
<path opacity="0.6" d="M318.892 844.633C320.208 844.633 321.276 843.565 321.276 842.248C321.276 840.93 320.208 839.863 318.892 839.863C317.575 839.863 316.508 840.93 316.508 842.248C316.508 843.565 317.575 844.633 318.892 844.633Z" fill="white"/>
<path opacity="0.6" d="M531.284 973.646C532.6 973.646 533.668 972.579 533.668 971.261C533.668 969.944 532.6 968.876 531.284 968.876C529.967 968.876 528.9 969.944 528.9 971.261C528.9 972.579 529.967 973.646 531.284 973.646Z" fill="white"/>
<path opacity="0.6" d="M812.811 878.241C814.726 878.241 816.279 876.688 816.279 874.772C816.279 872.856 814.726 871.303 812.811 871.303C810.896 871.303 809.344 872.856 809.344 874.772C809.344 876.688 810.896 878.241 812.811 878.241Z" fill="white"/>
<path opacity="0.6" d="M658.502 824.468C660.417 824.468 661.97 822.914 661.97 820.998C661.97 819.082 660.417 817.529 658.502 817.529C656.587 817.529 655.034 819.082 655.034 820.998C655.034 822.914 656.587 824.468 658.502 824.468Z" fill="white"/>
<path opacity="0.6" d="M674.106 864.364C675.423 864.364 676.49 863.297 676.49 861.979C676.49 860.662 675.423 859.594 674.106 859.594C672.79 859.594 671.722 860.662 671.722 861.979C671.722 863.297 672.79 864.364 674.106 864.364Z" fill="white"/>
<path opacity="0.6" d="M505.927 790.642C507.124 790.642 508.094 789.671 508.094 788.474C508.094 787.276 507.124 786.306 505.927 786.306C504.73 786.306 503.759 787.276 503.759 788.474C503.759 789.671 504.73 790.642 505.927 790.642Z" fill="white"/>
<path opacity="0.6" d="M348.8 744.024C349.997 744.024 350.967 743.053 350.967 741.856C350.967 740.658 349.997 739.687 348.8 739.687C347.603 739.687 346.633 740.658 346.633 741.856C346.633 743.053 347.603 744.024 348.8 744.024Z" fill="white"/>
<path opacity="0.6" d="M277.714 220.814C279.03 220.814 280.098 219.746 280.098 218.429C280.098 217.111 279.03 216.043 277.714 216.043C276.397 216.043 275.33 217.111 275.33 218.429C275.33 219.746 276.397 220.814 277.714 220.814Z" fill="white"/>
<path opacity="0.6" d="M424.871 139.719C426.666 139.719 428.122 138.263 428.122 136.467C428.122 134.671 426.666 133.215 424.871 133.215C423.076 133.215 421.62 134.671 421.62 136.467C421.62 138.263 423.076 139.719 424.871 139.719Z" fill="white"/>
<path opacity="0.6" d="M426.388 77.9229C427.705 77.9229 428.772 76.855 428.772 75.5378C428.772 74.2205 427.705 73.1527 426.388 73.1527C425.071 73.1527 424.004 74.2205 424.004 75.5378C424.004 76.855 425.071 77.9229 426.388 77.9229Z" fill="white"/>
<path opacity="0.6" d="M586.332 111.965C587.649 111.965 588.716 110.897 588.716 109.58C588.716 108.263 587.649 107.195 586.332 107.195C585.015 107.195 583.948 108.263 583.948 109.58C583.948 110.897 585.015 111.965 586.332 111.965Z" fill="white"/>
<path opacity="0.6" d="M1556.4 360.235C1557.72 360.235 1558.78 359.167 1558.78 357.85C1558.78 356.533 1557.72 355.465 1556.4 355.465C1555.08 355.465 1554.02 356.533 1554.02 357.85C1554.02 359.167 1555.08 360.235 1556.4 360.235Z" fill="white"/>
<path opacity="0.6" d="M1703.56 278.924C1705.35 278.924 1706.81 277.468 1706.81 275.672C1706.81 273.875 1705.35 272.419 1703.56 272.419C1701.76 272.419 1700.31 273.875 1700.31 275.672C1700.31 277.468 1701.76 278.924 1703.56 278.924Z" fill="white"/>
<path opacity="0.6" d="M1705.07 217.128C1706.39 217.128 1707.46 216.06 1707.46 214.742C1707.46 213.425 1706.39 212.357 1705.07 212.357C1703.76 212.357 1702.69 213.425 1702.69 214.742C1702.69 216.06 1703.76 217.128 1705.07 217.128Z" fill="white"/>
<path opacity="0.6" d="M1865.02 251.17C1866.33 251.17 1867.4 250.102 1867.4 248.785C1867.4 247.467 1866.33 246.4 1865.02 246.4C1863.7 246.4 1862.63 247.467 1862.63 248.785C1862.63 250.102 1863.7 251.17 1865.02 251.17Z" fill="white"/>
<path opacity="0.6" d="M425.088 595.929C427.003 595.929 428.555 594.376 428.555 592.46C428.555 590.544 427.003 588.991 425.088 588.991C423.173 588.991 421.62 590.544 421.62 592.46C421.62 594.376 423.173 595.929 425.088 595.929Z" fill="white"/>
<path opacity="0.6" d="M755.595 38.2431C756.792 38.2431 757.763 37.2723 757.763 36.0748C757.763 34.8772 756.792 33.9065 755.595 33.9065C754.398 33.9065 753.428 34.8772 753.428 36.0748C753.428 37.2723 754.398 38.2431 755.595 38.2431Z" fill="white"/>
<path opacity="0.6" d="M138.359 291.5C139.795 291.5 140.959 290.335 140.959 288.898C140.959 287.461 139.795 286.296 138.359 286.296C136.922 286.296 135.758 287.461 135.758 288.898C135.758 290.335 136.922 291.5 138.359 291.5Z" fill="white"/>
</g>
</svg>
