<svg width="63" height="62" viewBox="0 0 63 62" fill="none" xmlns="http://www.w3.org/2000/svg">
<path d="M47.042 17.762H15.957" stroke="#AFAFAF" stroke-width="4" stroke-miterlimit="10" stroke-linejoin="round"/>
<path d="M53.8425 26.996V14.02C53.8285 11.867 55.2315 10.093 57.1705 10.081C59.1065 10.071 60.7015 11.823 60.7155 13.978V39.166L49.1665 54.246C49.1665 54.246 47.9145 55.705 48.2855 61.042" stroke="#AFAFAF" stroke-width="4" stroke-miterlimit="10" stroke-linejoin="round"/>
<path d="M34.4673 61.167L34.4813 49.463C34.4813 44.916 39.7843 41.836 39.7843 41.836C42.1843 40.229 44.9173 37.428 44.9173 37.428L49.4423 32.522C51.3073 30.501 54.0013 29.922 55.4263 31.236C56.8543 32.549 56.4943 35.277 54.6293 37.298L48.2683 44.189" stroke="#AFAFAF" stroke-width="4" stroke-miterlimit="10"/>
<path d="M9.15718 26.996V14.02C9.17118 11.867 7.76818 10.093 5.82918 10.081C3.89318 10.071 2.29818 11.823 2.28418 13.978V39.166L13.8332 54.246C13.8332 54.246 15.0852 55.705 14.7142 61.042" stroke="#AFAFAF" stroke-width="4" stroke-miterlimit="10" stroke-linejoin="round"/>
<path d="M28.5323 61.167L28.5183 49.463C28.5183 44.916 23.2153 41.836 23.2153 41.836C20.8153 40.229 18.0833 37.428 18.0833 37.428L13.5573 32.522C11.6933 30.501 8.99927 29.922 7.57327 31.236C6.14727 32.55 6.50627 35.277 8.37127 37.298L14.7323 44.189" stroke="#AFAFAF" stroke-width="4" stroke-miterlimit="10"/>
<path d="M31.499 33.302V2.26401" stroke="#AFAFAF" stroke-width="4" stroke-miterlimit="10" stroke-linejoin="round"/>
<path d="M30.2512 2.47101C30.2512 2.47101 15.1402 15.579 30.2512 32.824" stroke="#AFAFAF" stroke-width="4" stroke-miterlimit="10" stroke-linejoin="round"/>
<path d="M32.748 2.47101C32.748 2.47101 47.859 15.579 32.748 32.824" stroke="#AFAFAF" stroke-width="4" stroke-miterlimit="10" stroke-linejoin="round"/>
<path d="M31.5 33.304C40.0836 33.304 47.042 26.3456 47.042 17.762C47.042 9.17839 40.0836 2.22 31.5 2.22C22.9164 2.22 15.958 9.17839 15.958 17.762C15.958 26.3456 22.9164 33.304 31.5 33.304Z" stroke="#AFAFAF" stroke-width="4" stroke-miterlimit="10" stroke-linejoin="round"/>
</svg>
